<?xml version="1.0" encoding="utf-8"?>
<!-- Generator: Adobe Illustrator 23.1.0, SVG Export Plug-In . SVG Version: 6.00 Build 0)  -->
<svg version="1.1" id="Layer_1" xmlns="http://www.w3.org/2000/svg" xmlns:xlink="http://www.w3.org/1999/xlink" x="0px" y="0px"
	 viewBox="0 0 786.8 223.7" style="enable-background:new 0 0 786.8 223.7;" xml:space="preserve">
<style type="text/css">
	.st0{opacity:0.3;}
	.st1{fill:#18BDDE;}
	.st2{fill:#1E90A4;}
	.st3{fill:#D5E7F7;}
	.st4{fill:#A4F7FA;}
	.st5{opacity:0.8;}
	.st6{fill:#A3C5DF;}
	.st7{fill:#93EBFB;}
	.st8{fill:#FBBA01;}
	.st9{fill:#BFD8F8;}
	.st10{fill:#2AABBE;}
	.st11{fill:#39608D;}
</style>
<g class="st0">
	<rect x="359.2" y="58.6" class="st1" width="29.8" height="139"/>
	<rect x="365.9" y="58.6" class="st2" width="29.8" height="139"/>
	<rect x="365.9" y="58.6" class="st1" width="29.8" height="8"/>
	<rect x="365.9" y="76" class="st1" width="29.8" height="8"/>
	<rect x="365.9" y="93.5" class="st1" width="29.8" height="8"/>
	<rect x="365.9" y="110.9" class="st1" width="29.8" height="8"/>
	<rect x="365.9" y="128.3" class="st1" width="29.8" height="8"/>
	<rect x="365.9" y="145.7" class="st1" width="29.8" height="8"/>
	<rect x="365.9" y="163.1" class="st1" width="29.8" height="8"/>
	<rect x="365.9" y="180.6" class="st1" width="29.8" height="8"/>
	<rect x="406.9" y="78.3" class="st1" width="29.8" height="119.3"/>
	<rect x="413.6" y="78.3" class="st2" width="29.8" height="119.3"/>
	<rect x="413.6" y="78.3" class="st1" width="29.8" height="6.9"/>
	<rect x="413.6" y="93.2" class="st1" width="29.8" height="6.9"/>
	<rect x="413.6" y="108.2" class="st1" width="29.8" height="6.9"/>
	<rect x="413.6" y="123.2" class="st1" width="29.8" height="6.9"/>
	<rect x="413.6" y="138.1" class="st1" width="29.8" height="6.9"/>
	<rect x="413.6" y="153.1" class="st1" width="29.8" height="6.9"/>
	<rect x="413.6" y="168" class="st1" width="29.8" height="6.9"/>
	<rect x="413.6" y="183" class="st1" width="29.8" height="6.9"/>
	<rect x="343.1" y="193.4" class="st3" width="12.5" height="17.5"/>
	<path class="st4" d="M332.3,169.6v-55.7h-14.5v30.2H306v11.1h-20.5v-6.5h-8.9v-25.6h-23.9V79.2h-18.8v23.4h-4.3V83h-18.9v30.3
		h-17.1c0,0-4.3-7.6-6.3-5.5c-0.1,0.3-0.2,0.6-0.3,0.9c0.4,1.8,0.6,3.6,0.6,5.4v65.7c0.3,1.3,0.6,2.5,0.9,3.7l0.5,1.9
		c3.1,11.2,7.3,22,12.6,32.4h-2.2l0.1,0.2h2.2l11.9,0.1h133.2v-48.5H332.3z"/>
	<rect x="233.9" y="82.2" class="st1" width="18.9" height="4.5"/>
	<rect x="233.9" y="90.6" class="st1" width="18.9" height="4.5"/>
	<rect x="233.9" y="98.1" class="st1" width="18.9" height="4.5"/>
	<rect x="210.7" y="98.1" class="st1" width="18.9" height="4.5"/>
	<rect x="210.7" y="90.6" class="st1" width="18.9" height="4.5"/>
	<rect x="210.7" y="83" class="st1" width="18.9" height="4.5"/>
	<rect x="210.7" y="105.5" class="st1" width="42.1" height="4.5"/>
	<rect x="210.7" y="112.8" class="st1" width="42.1" height="4.5"/>
	<rect x="317.7" y="113.9" class="st1" width="14.7" height="6.9"/>
	<rect x="317.7" y="124.2" class="st1" width="14.7" height="6.9"/>
	<rect x="317.7" y="134.4" class="st1" width="14.7" height="6.9"/>
	<rect x="317.7" y="145.2" class="st1" width="14.7" height="6.9"/>
	<rect x="317.7" y="155.6" class="st1" width="14.7" height="6.9"/>
	<rect x="317.7" y="166" class="st1" width="14.7" height="6.9"/>
	<rect x="317.7" y="177" class="st1" width="14.7" height="6.9"/>
	<rect x="210.7" y="120" class="st1" width="42.1" height="2.8"/>
	<rect x="312.5" y="113.9" class="st1" width="5.4" height="30.2"/>
	<rect x="295.2" y="144.1" class="st1" width="10.9" height="11.1"/>
	<path class="st1" d="M207.5,83l-0.5,0.4v29.8h3.8V83H207.5z"/>
	<rect x="231.6" y="79.2" class="st1" width="2.3" height="23.4"/>
	<g class="st5">
		<rect x="269.5" y="127.5" class="st1" width="3.2" height="4.3"/>
		<rect x="263.5" y="127.5" class="st1" width="3.2" height="4.3"/>
		<rect x="257.7" y="127.5" class="st1" width="3.2" height="4.3"/>
		<rect x="252.1" y="127.5" class="st1" width="3.2" height="4.3"/>
		<rect x="246.5" y="127.5" class="st1" width="3.2" height="4.3"/>
		<rect x="240.8" y="127.5" class="st1" width="3.2" height="4.3"/>
		<rect x="234.8" y="127.5" class="st1" width="3.2" height="4.3"/>
		<rect x="228.9" y="127.5" class="st1" width="3.2" height="4.3"/>
		<rect x="223.4" y="127.5" class="st1" width="3.2" height="4.3"/>
		<rect x="217.7" y="127.5" class="st1" width="3.2" height="4.3"/>
		<rect x="211.8" y="127.5" class="st1" width="3.2" height="4.3"/>
		<rect x="205.8" y="127.5" class="st1" width="3.2" height="4.3"/>
		<rect x="200" y="127.5" class="st1" width="3.2" height="4.3"/>
		<rect x="194.4" y="127.5" class="st1" width="3.2" height="4.3"/>
		<rect x="188.8" y="127.5" class="st1" width="3.2" height="4.3"/>
		<rect x="269.5" y="135.2" class="st1" width="3.2" height="4.3"/>
		<rect x="263.5" y="135.2" class="st1" width="3.2" height="4.3"/>
		<rect x="257.7" y="135.2" class="st1" width="3.2" height="4.3"/>
		<rect x="252.1" y="135.2" class="st1" width="3.2" height="4.3"/>
		<rect x="246.5" y="135.2" class="st1" width="3.2" height="4.3"/>
		<rect x="240.8" y="135.2" class="st1" width="3.2" height="4.3"/>
		<rect x="234.8" y="135.2" class="st1" width="3.2" height="4.3"/>
		<rect x="228.9" y="135.2" class="st1" width="3.2" height="4.3"/>
		<rect x="223.4" y="135.2" class="st1" width="3.2" height="4.3"/>
		<rect x="217.7" y="135.2" class="st1" width="3.2" height="4.3"/>
		<rect x="211.8" y="135.2" class="st1" width="3.2" height="4.3"/>
		<rect x="205.8" y="135.2" class="st1" width="3.2" height="4.3"/>
		<rect x="200" y="135.2" class="st1" width="3.2" height="4.3"/>
		<rect x="194.4" y="135.2" class="st1" width="3.2" height="4.3"/>
		<rect x="188.8" y="135.2" class="st1" width="3.2" height="4.3"/>
		<rect x="269.5" y="142.7" class="st1" width="3.2" height="4.3"/>
		<rect x="263.5" y="142.7" class="st1" width="3.2" height="4.3"/>
		<rect x="257.7" y="142.7" class="st1" width="3.2" height="4.3"/>
		<rect x="252.1" y="142.7" class="st1" width="3.2" height="4.3"/>
		<rect x="246.5" y="142.7" class="st1" width="3.2" height="4.3"/>
		<rect x="240.8" y="142.7" class="st1" width="3.2" height="4.3"/>
		<rect x="234.8" y="142.7" class="st1" width="3.2" height="4.3"/>
		<rect x="228.9" y="142.7" class="st1" width="3.2" height="4.3"/>
		<rect x="223.4" y="142.7" class="st1" width="3.2" height="4.3"/>
		<rect x="217.7" y="142.7" class="st1" width="3.2" height="4.3"/>
		<rect x="211.8" y="142.7" class="st1" width="3.2" height="4.3"/>
		<rect x="205.8" y="142.7" class="st1" width="3.2" height="4.3"/>
		<rect x="200" y="142.7" class="st1" width="3.2" height="4.3"/>
		<rect x="194.4" y="142.7" class="st1" width="3.2" height="4.3"/>
		<rect x="188.8" y="142.7" class="st1" width="3.2" height="4.3"/>
		<rect x="269.5" y="150.7" class="st1" width="3.2" height="4.3"/>
		<rect x="263.5" y="150.7" class="st1" width="3.2" height="4.3"/>
		<rect x="257.7" y="150.7" class="st1" width="3.2" height="4.3"/>
		<rect x="252.1" y="150.7" class="st1" width="3.2" height="4.3"/>
		<rect x="246.5" y="150.7" class="st1" width="3.2" height="4.3"/>
		<rect x="240.8" y="150.7" class="st1" width="3.2" height="4.3"/>
		<rect x="234.8" y="150.7" class="st1" width="3.2" height="4.3"/>
		<rect x="228.9" y="150.7" class="st1" width="3.2" height="4.3"/>
		<rect x="223.4" y="150.7" class="st1" width="3.2" height="4.3"/>
		<rect x="217.7" y="150.7" class="st1" width="3.2" height="4.3"/>
		<rect x="211.8" y="150.7" class="st1" width="3.2" height="4.3"/>
		<rect x="205.8" y="150.7" class="st1" width="3.2" height="4.3"/>
		<rect x="200" y="150.7" class="st1" width="3.2" height="4.3"/>
		<rect x="194.4" y="150.7" class="st1" width="3.2" height="4.3"/>
		<rect x="188.8" y="150.7" class="st1" width="3.2" height="4.3"/>
		<rect x="269.5" y="158.3" class="st1" width="3.2" height="4.3"/>
		<rect x="263.5" y="158.3" class="st1" width="3.2" height="4.3"/>
		<rect x="257.7" y="158.3" class="st1" width="3.2" height="4.3"/>
		<rect x="252.1" y="158.3" class="st1" width="3.2" height="4.3"/>
		<rect x="246.5" y="158.3" class="st1" width="3.2" height="4.3"/>
		<rect x="240.8" y="158.3" class="st1" width="3.2" height="4.3"/>
		<rect x="234.8" y="158.3" class="st1" width="3.2" height="4.3"/>
		<rect x="228.9" y="158.3" class="st1" width="3.2" height="4.3"/>
		<rect x="223.4" y="158.3" class="st1" width="3.2" height="4.3"/>
		<rect x="217.7" y="158.3" class="st1" width="3.2" height="4.3"/>
		<rect x="211.8" y="158.3" class="st1" width="3.2" height="4.3"/>
		<rect x="205.8" y="158.3" class="st1" width="3.2" height="4.3"/>
		<rect x="200" y="158.3" class="st1" width="3.2" height="4.3"/>
		<rect x="194.4" y="158.3" class="st1" width="3.2" height="4.3"/>
		<rect x="188.8" y="158.3" class="st1" width="3.2" height="4.3"/>
		<rect x="269.5" y="165.8" class="st1" width="3.2" height="4.3"/>
		<rect x="263.5" y="165.8" class="st1" width="3.2" height="4.3"/>
		<rect x="257.7" y="165.8" class="st1" width="3.2" height="4.3"/>
		<rect x="252.1" y="165.8" class="st1" width="3.2" height="4.3"/>
		<rect x="246.5" y="165.8" class="st1" width="3.2" height="4.3"/>
		<rect x="240.8" y="165.8" class="st1" width="3.2" height="4.3"/>
		<rect x="234.8" y="165.8" class="st1" width="3.2" height="4.3"/>
		<rect x="228.9" y="165.8" class="st1" width="3.2" height="4.3"/>
		<rect x="223.4" y="165.8" class="st1" width="3.2" height="4.3"/>
		<rect x="217.7" y="165.8" class="st1" width="3.2" height="4.3"/>
		<rect x="211.8" y="165.8" class="st1" width="3.2" height="4.3"/>
		<rect x="205.8" y="165.8" class="st1" width="3.2" height="4.3"/>
		<rect x="200" y="165.8" class="st1" width="3.2" height="4.3"/>
		<rect x="194.4" y="165.8" class="st1" width="3.2" height="4.3"/>
		<rect x="188.8" y="165.8" class="st1" width="3.2" height="4.3"/>
	</g>
	<rect x="221" y="179.4" class="st1" width="74.2" height="38.4"/>
	<rect x="277.2" y="198.6" class="st1" width="74.2" height="19.2"/>
	<path class="st1" d="M189.1,185.4c3.1,11.2,7.3,22,12.6,32.4l0,0H215v-32.4L189.1,185.4z"/>
	<rect x="276.4" y="183.9" class="st2" width="13.8" height="7.1"/>
	<rect x="258.6" y="183.9" class="st2" width="13.8" height="7.1"/>
	<rect x="241.2" y="183.9" class="st2" width="13.8" height="7.1"/>
	<rect x="224.2" y="183.9" class="st2" width="13.8" height="7.1"/>
	<rect x="214.6" y="179.4" class="st6" width="7.1" height="38.7"/>
	<rect x="329" y="110.9" class="st3" width="0.4" height="3"/>
	<rect x="315.2" y="110.9" class="st3" width="0.4" height="3"/>
	<rect x="337.4" y="184.6" class="st2" width="50.9" height="32.8"/>
	<rect x="337.4" y="180.3" class="st1" width="50.9" height="10.7"/>
	<rect x="382.2" y="194.1" class="st1" width="2.6" height="3.5"/>
	<rect x="377.3" y="194.1" class="st1" width="2.6" height="3.5"/>
	<rect x="372.6" y="194.1" class="st1" width="2.6" height="3.5"/>
	<rect x="368" y="194.1" class="st1" width="2.6" height="3.5"/>
	<rect x="363.4" y="194.1" class="st1" width="2.6" height="3.5"/>
	<rect x="358.7" y="194.1" class="st1" width="2.6" height="3.5"/>
	<rect x="353.8" y="194.1" class="st1" width="2.6" height="3.5"/>
	<rect x="349" y="194.1" class="st1" width="2.6" height="3.5"/>
	<rect x="344.5" y="194.1" class="st1" width="2.6" height="3.5"/>
	<rect x="339.9" y="194.1" class="st1" width="2.6" height="3.5"/>
	<rect x="382.2" y="200.4" class="st1" width="2.6" height="3.5"/>
	<rect x="377.3" y="200.4" class="st1" width="2.6" height="3.5"/>
	<rect x="372.6" y="200.4" class="st1" width="2.6" height="3.5"/>
	<rect x="368" y="200.4" class="st1" width="2.6" height="3.5"/>
	<rect x="363.4" y="200.4" class="st1" width="2.6" height="3.5"/>
	<rect x="358.7" y="200.4" class="st1" width="2.6" height="3.5"/>
	<rect x="353.8" y="200.4" class="st1" width="2.6" height="3.5"/>
	<rect x="349" y="200.4" class="st1" width="2.6" height="3.5"/>
	<rect x="344.5" y="200.4" class="st1" width="2.6" height="3.5"/>
	<rect x="339.9" y="200.4" class="st1" width="2.6" height="3.5"/>
	<rect x="382.2" y="206.5" class="st1" width="2.6" height="3.5"/>
	<rect x="377.3" y="206.5" class="st1" width="2.6" height="3.5"/>
	<rect x="372.6" y="206.5" class="st1" width="2.6" height="3.5"/>
	<rect x="368" y="206.5" class="st1" width="2.6" height="3.5"/>
	<rect x="363.4" y="206.5" class="st1" width="2.6" height="3.5"/>
	<rect x="358.7" y="206.5" class="st1" width="2.6" height="3.5"/>
	<rect x="353.8" y="206.5" class="st1" width="2.6" height="3.5"/>
	<rect x="349" y="206.5" class="st1" width="2.6" height="3.5"/>
	<rect x="344.5" y="206.5" class="st1" width="2.6" height="3.5"/>
	<rect x="339.9" y="206.5" class="st1" width="2.6" height="3.5"/>
	<rect x="382.2" y="183.3" class="st6" width="2.2" height="3.7"/>
	<rect x="360.4" y="183.3" class="st6" width="2.2" height="3.7"/>
	<rect x="343" y="183.3" class="st6" width="2.2" height="3.7"/>
	<rect x="391.5" y="184.6" class="st2" width="50.9" height="32.8"/>
	<rect x="391.5" y="180.3" class="st1" width="50.9" height="10.7"/>
	<rect x="436.4" y="194.1" class="st1" width="2.6" height="3.5"/>
	<rect x="431.5" y="194.1" class="st1" width="2.6" height="3.5"/>
	<rect x="426.7" y="194.1" class="st1" width="2.6" height="3.5"/>
	<rect x="422.2" y="194.1" class="st1" width="2.6" height="3.5"/>
	<rect x="417.5" y="194.1" class="st1" width="2.6" height="3.5"/>
	<rect x="412.9" y="194.1" class="st1" width="2.6" height="3.5"/>
	<rect x="408" y="194.1" class="st1" width="2.6" height="3.5"/>
	<rect x="403.2" y="194.1" class="st1" width="2.6" height="3.5"/>
	<rect x="398.7" y="194.1" class="st1" width="2.6" height="3.5"/>
	<rect x="394" y="194.1" class="st1" width="2.6" height="3.5"/>
	<rect x="436.4" y="200.4" class="st1" width="2.6" height="3.5"/>
	<rect x="431.5" y="200.4" class="st1" width="2.6" height="3.5"/>
	<rect x="426.7" y="200.4" class="st1" width="2.6" height="3.5"/>
	<rect x="422.2" y="200.4" class="st1" width="2.6" height="3.5"/>
	<rect x="417.5" y="200.4" class="st1" width="2.6" height="3.5"/>
	<rect x="412.9" y="200.4" class="st1" width="2.6" height="3.5"/>
	<rect x="408" y="200.4" class="st1" width="2.6" height="3.5"/>
	<rect x="403.2" y="200.4" class="st1" width="2.6" height="3.5"/>
	<rect x="398.7" y="200.4" class="st1" width="2.6" height="3.5"/>
	<rect x="394" y="200.4" class="st1" width="2.6" height="3.5"/>
	<rect x="436.4" y="206.5" class="st1" width="2.6" height="3.5"/>
	<rect x="431.5" y="206.5" class="st1" width="2.6" height="3.5"/>
	<rect x="426.7" y="206.5" class="st1" width="2.6" height="3.5"/>
	<rect x="422.2" y="206.5" class="st1" width="2.6" height="3.5"/>
	<rect x="417.5" y="206.5" class="st1" width="2.6" height="3.5"/>
	<rect x="412.9" y="206.5" class="st1" width="2.6" height="3.5"/>
	<rect x="408" y="206.5" class="st1" width="2.6" height="3.5"/>
	<rect x="403.2" y="206.5" class="st1" width="2.6" height="3.5"/>
	<rect x="398.7" y="206.5" class="st1" width="2.6" height="3.5"/>
	<rect x="394" y="206.5" class="st1" width="2.6" height="3.5"/>
	<rect x="436.4" y="183.3" class="st6" width="2.2" height="3.7"/>
	<rect x="414.5" y="183.3" class="st6" width="2.2" height="3.7"/>
	<rect x="397.2" y="183.3" class="st6" width="2.2" height="3.7"/>
	<rect x="445.8" y="184.6" class="st2" width="50.9" height="32.8"/>
	<rect x="445.8" y="180.3" class="st1" width="50.9" height="10.7"/>
	<rect x="490.6" y="194.1" class="st1" width="2.6" height="3.5"/>
	<rect x="485.7" y="194.1" class="st1" width="2.6" height="3.5"/>
	<rect x="481" y="194.1" class="st1" width="2.6" height="3.5"/>
	<rect x="476.4" y="194.1" class="st1" width="2.6" height="3.5"/>
	<rect x="471.8" y="194.1" class="st1" width="2.6" height="3.5"/>
	<rect x="467.1" y="194.1" class="st1" width="2.6" height="3.5"/>
	<rect x="462.2" y="194.1" class="st1" width="2.6" height="3.5"/>
	<rect x="457.4" y="194.1" class="st1" width="2.6" height="3.5"/>
	<rect x="452.9" y="194.1" class="st1" width="2.6" height="3.5"/>
	<rect x="448.3" y="194.1" class="st1" width="2.6" height="3.5"/>
	<rect x="490.6" y="200.4" class="st1" width="2.6" height="3.5"/>
	<rect x="485.7" y="200.4" class="st1" width="2.6" height="3.5"/>
	<rect x="481" y="200.4" class="st1" width="2.6" height="3.5"/>
	<rect x="476.4" y="200.4" class="st1" width="2.6" height="3.5"/>
	<rect x="471.8" y="200.4" class="st1" width="2.6" height="3.5"/>
	<rect x="467.1" y="200.4" class="st1" width="2.6" height="3.5"/>
	<rect x="462.2" y="200.4" class="st1" width="2.6" height="3.5"/>
	<rect x="457.4" y="200.4" class="st1" width="2.6" height="3.5"/>
	<rect x="452.9" y="200.4" class="st1" width="2.6" height="3.5"/>
	<rect x="448.3" y="200.4" class="st1" width="2.6" height="3.5"/>
	<rect x="490.6" y="206.5" class="st1" width="2.6" height="3.5"/>
	<rect x="485.7" y="206.5" class="st1" width="2.6" height="3.5"/>
	<rect x="481" y="206.5" class="st1" width="2.6" height="3.5"/>
	<rect x="476.4" y="206.5" class="st1" width="2.6" height="3.5"/>
	<rect x="471.8" y="206.5" class="st1" width="2.6" height="3.5"/>
	<rect x="467.1" y="206.5" class="st1" width="2.6" height="3.5"/>
	<rect x="462.2" y="206.5" class="st1" width="2.6" height="3.5"/>
	<rect x="457.4" y="206.5" class="st1" width="2.6" height="3.5"/>
	<rect x="452.9" y="206.5" class="st1" width="2.6" height="3.5"/>
	<rect x="448.3" y="206.5" class="st1" width="2.6" height="3.5"/>
	<rect x="490.6" y="183.3" class="st6" width="2.2" height="3.7"/>
	<rect x="468.8" y="183.3" class="st6" width="2.2" height="3.7"/>
	<rect x="451.4" y="183.3" class="st6" width="2.2" height="3.7"/>
</g>
<g>
	<path class="st7" d="M244.6,223.5H9.1c0.1-0.1,0.2-0.3,0.3-0.4c2.3-3.1,10.7-5.5,10.7-5.5c26.4-5.6,51.5,4.9,70-1.9
		s43.7-6.6,53.6-4.6s35.4,2,50.4-2.8c10.8-3.4,31.7-3.8,42.5-3.8c2.9,1.3,5.3,2.9,7.2,4.6L244.6,223.5z"/>
	<path class="st1" d="M246.6,223.5l-64.4-0.1c0.7-0.9,3.3-3.9,9.7-5.2c0.9-0.2,1.8-0.3,2.7-0.4c0.3,0,0.7-0.1,1-0.1
		c0.4,0,0.8-0.1,1.2-0.1c0.4,0,0.9,0,1.3,0c11.3,0,14.9-10.8,41.8-11.4c1.5,0.9,2.8,1.9,3.9,2.9
		C247.4,212.6,248.9,217.2,246.6,223.5z"/>
	<path class="st1" d="M197.7,219.8c0,0-6.9-5.1-11.4-4.6C181.8,215.7,197.7,219.8,197.7,219.8z"/>
	<path class="st1" d="M196.7,218.9c0,0,0.6-4.3-1.7-4S196.7,218.9,196.7,218.9z"/>
	<path class="st7" d="M234.9,220.7c0,0,3.6-8.8-3.3-10.3S234.9,220.7,234.9,220.7z"/>
	<path class="st7" d="M237,217.9c0,0,3.6-2.7,2.8-4.4S236.6,214.9,237,217.9z"/>
</g>
<title>1</title>
<g class="st0">
	<rect x="603.4" y="79.6" class="st1" width="26.5" height="121.7"/>
	<rect x="597.5" y="79.6" class="st2" width="26.5" height="121.7"/>
	<rect x="597.5" y="79.6" class="st1" width="26.5" height="7"/>
	<rect x="597.5" y="94.8" class="st1" width="26.5" height="7"/>
	<rect x="597.5" y="110.1" class="st1" width="26.5" height="7"/>
	<rect x="597.5" y="125.4" class="st1" width="26.5" height="7"/>
	<rect x="597.5" y="140.6" class="st1" width="26.5" height="7"/>
	<rect x="597.5" y="155.9" class="st1" width="26.5" height="7"/>
	<rect x="597.5" y="171.1" class="st1" width="26.5" height="7"/>
	<rect x="597.5" y="186.4" class="st1" width="26.5" height="7"/>
	<rect x="561.1" y="96.9" class="st1" width="26.5" height="104.5"/>
	<rect x="555.1" y="96.9" class="st2" width="26.5" height="104.5"/>
	<rect x="555.1" y="96.8" class="st1" width="26.5" height="6"/>
	<rect x="555.1" y="109.9" class="st1" width="26.5" height="6"/>
	<rect x="555.1" y="123" class="st1" width="26.5" height="6"/>
	<rect x="555.1" y="136.1" class="st1" width="26.5" height="6"/>
	<rect x="555.1" y="149.2" class="st1" width="26.5" height="6"/>
	<rect x="555.1" y="162.3" class="st1" width="26.5" height="6"/>
	<rect x="555.1" y="175.4" class="st1" width="26.5" height="6"/>
	<rect x="555.1" y="188.5" class="st1" width="26.5" height="6"/>
	<rect x="633.2" y="197.6" class="st3" width="11.1" height="15.3"/>
	<path class="st4" d="M653.8,176.7V128h12.9v26.4h10.5v9.7h18.2v-5.7h7.9v-22.4h21.3V97.6h16.7v20.5h3.8V101H762v26.5h15.2
		c0,0,3.9-6.6,5.6-4.8c0.9,3.1,1.6,6.3,2.2,9.4c0.5,2.7,0.9,5.3,1.1,7.9c0.1,1.3,0.3,2.5,0.3,3.8c0.3,4.3,0.4,8.6,0.2,12.8
		c0,1.2-0.1,2.4-0.2,3.6c-0.1,1.3-0.2,2.5-0.3,3.8c-0.1,1-0.2,1.9-0.3,2.9c-0.2,1.3-0.3,2.5-0.5,3.8c-0.1,0.9-0.3,1.9-0.4,2.8
		c-0.2,1.3-0.4,2.5-0.7,3.8c-0.8,4.1-1.7,8-2.7,11.6l-0.5,1.7c-2.7,9.8-6.5,19.3-11.2,28.4l0,0h2l-0.1,0.2h-2l-10.6,0.1H640.9v-42.4
		H653.8z"/>
	<rect x="724.6" y="100.2" class="st1" width="16.8" height="3.9"/>
	<rect x="724.6" y="107.6" class="st1" width="16.8" height="3.9"/>
	<rect x="724.6" y="114.2" class="st1" width="16.8" height="3.9"/>
	<rect x="745.2" y="114.2" class="st1" width="16.8" height="3.9"/>
	<rect x="745.2" y="107.6" class="st1" width="16.8" height="3.9"/>
	<rect x="745.2" y="101" class="st1" width="16.8" height="3.9"/>
	<rect x="724.6" y="120.6" class="st1" width="37.4" height="3.9"/>
	<rect x="724.6" y="127" class="st1" width="37.4" height="3.9"/>
	<rect x="653.8" y="128" class="st1" width="13" height="6"/>
	<rect x="653.8" y="137" class="st1" width="13" height="6"/>
	<rect x="653.8" y="146" class="st1" width="13" height="6"/>
	<rect x="653.8" y="155.4" class="st1" width="13" height="6"/>
	<rect x="653.8" y="164.5" class="st1" width="13" height="6"/>
	<rect x="653.8" y="173.7" class="st1" width="13" height="6"/>
	<rect x="653.8" y="183.2" class="st1" width="13" height="6"/>
	<rect x="724.6" y="133.3" class="st1" width="37.4" height="2.5"/>
	<rect x="666.7" y="128" class="st1" width="4.8" height="26.4"/>
	<rect x="677.2" y="154.4" class="st1" width="9.7" height="9.7"/>
	<path class="st1" d="M764.9,101l0.5,0.3v26.1H762V101H764.9z"/>
	<rect x="741.4" y="97.6" class="st1" width="2" height="20.5"/>
	<g class="st5">
		<rect x="706.8" y="139.9" class="st1" width="2.8" height="3.8"/>
		<rect x="712.2" y="139.9" class="st1" width="2.8" height="3.8"/>
		<rect x="717.4" y="139.9" class="st1" width="2.8" height="3.8"/>
		<rect x="722.3" y="139.9" class="st1" width="2.8" height="3.8"/>
		<rect x="727.3" y="139.9" class="st1" width="2.8" height="3.8"/>
		<rect x="732.4" y="139.9" class="st1" width="2.8" height="3.8"/>
		<rect x="737.7" y="139.9" class="st1" width="2.8" height="3.8"/>
		<rect x="742.9" y="139.9" class="st1" width="2.8" height="3.8"/>
		<rect x="747.9" y="139.9" class="st1" width="2.8" height="3.8"/>
		<rect x="752.9" y="139.9" class="st1" width="2.9" height="3.8"/>
		<rect x="758.1" y="139.9" class="st1" width="2.9" height="3.8"/>
		<rect x="763.4" y="139.9" class="st1" width="2.9" height="3.8"/>
		<rect x="768.6" y="139.9" class="st1" width="2.9" height="3.8"/>
		<rect x="773.6" y="139.9" class="st1" width="2.8" height="3.8"/>
		<rect x="778.6" y="139.9" class="st1" width="2.8" height="3.8"/>
		<path class="st1" d="M786.1,140c0.1,1.3,0.3,2.5,0.3,3.8h-2.8v-3.8L786.1,140z"/>
		<rect x="706.8" y="146.6" class="st1" width="2.8" height="3.8"/>
		<rect x="712.2" y="146.6" class="st1" width="2.8" height="3.8"/>
		<rect x="717.4" y="146.6" class="st1" width="2.8" height="3.8"/>
		<rect x="722.3" y="146.6" class="st1" width="2.8" height="3.8"/>
		<rect x="727.3" y="146.6" class="st1" width="2.8" height="3.8"/>
		<rect x="732.4" y="146.6" class="st1" width="2.8" height="3.8"/>
		<rect x="737.7" y="146.6" class="st1" width="2.8" height="3.8"/>
		<rect x="742.9" y="146.6" class="st1" width="2.8" height="3.8"/>
		<rect x="747.9" y="146.6" class="st1" width="2.8" height="3.8"/>
		<rect x="752.9" y="146.6" class="st1" width="2.9" height="3.8"/>
		<rect x="758.1" y="146.6" class="st1" width="2.9" height="3.8"/>
		<rect x="763.4" y="146.6" class="st1" width="2.9" height="3.8"/>
		<rect x="768.6" y="146.6" class="st1" width="2.9" height="3.8"/>
		<rect x="773.6" y="146.6" class="st1" width="2.8" height="3.8"/>
		<rect x="778.6" y="146.6" class="st1" width="2.8" height="3.8"/>
		<rect x="783.7" y="146.6" class="st1" width="2.8" height="3.8"/>
		<rect x="706.8" y="153.2" class="st1" width="2.8" height="3.8"/>
		<rect x="712.2" y="153.2" class="st1" width="2.8" height="3.8"/>
		<rect x="717.4" y="153.2" class="st1" width="2.8" height="3.8"/>
		<rect x="722.3" y="153.2" class="st1" width="2.8" height="3.8"/>
		<rect x="727.3" y="153.2" class="st1" width="2.8" height="3.8"/>
		<rect x="732.4" y="153.2" class="st1" width="2.8" height="3.8"/>
		<rect x="737.7" y="153.2" class="st1" width="2.8" height="3.8"/>
		<rect x="742.9" y="153.2" class="st1" width="2.8" height="3.8"/>
		<rect x="747.9" y="153.2" class="st1" width="2.8" height="3.8"/>
		<rect x="752.9" y="153.2" class="st1" width="2.9" height="3.8"/>
		<rect x="758.1" y="153.2" class="st1" width="2.9" height="3.8"/>
		<rect x="763.4" y="153.2" class="st1" width="2.9" height="3.8"/>
		<rect x="768.6" y="153.2" class="st1" width="2.9" height="3.8"/>
		<rect x="773.6" y="153.2" class="st1" width="2.8" height="3.8"/>
		<rect x="778.6" y="153.2" class="st1" width="2.8" height="3.8"/>
		<rect x="783.7" y="153.2" class="st1" width="2.8" height="3.8"/>
		<rect x="706.8" y="160.2" class="st1" width="2.8" height="3.8"/>
		<rect x="712.2" y="160.2" class="st1" width="2.8" height="3.8"/>
		<rect x="717.4" y="160.2" class="st1" width="2.8" height="3.8"/>
		<rect x="722.3" y="160.2" class="st1" width="2.8" height="3.8"/>
		<rect x="727.3" y="160.2" class="st1" width="2.8" height="3.8"/>
		<rect x="732.4" y="160.2" class="st1" width="2.8" height="3.8"/>
		<rect x="737.7" y="160.2" class="st1" width="2.8" height="3.8"/>
		<rect x="742.9" y="160.2" class="st1" width="2.8" height="3.8"/>
		<rect x="747.9" y="160.2" class="st1" width="2.8" height="3.8"/>
		<rect x="752.9" y="160.2" class="st1" width="2.9" height="3.8"/>
		<rect x="758.1" y="160.2" class="st1" width="2.9" height="3.8"/>
		<rect x="763.4" y="160.2" class="st1" width="2.9" height="3.8"/>
		<rect x="768.6" y="160.2" class="st1" width="2.9" height="3.8"/>
		<rect x="773.6" y="160.2" class="st1" width="2.8" height="3.8"/>
		<rect x="778.6" y="160.2" class="st1" width="2.8" height="3.8"/>
		<path class="st1" d="M786.5,160.2c-0.1,1.3-0.2,2.5-0.3,3.8h-2.6v-3.8H786.5z"/>
		<rect x="706.8" y="166.9" class="st1" width="2.8" height="3.8"/>
		<rect x="712.2" y="166.9" class="st1" width="2.8" height="3.8"/>
		<rect x="717.4" y="166.9" class="st1" width="2.8" height="3.8"/>
		<rect x="722.3" y="166.9" class="st1" width="2.8" height="3.8"/>
		<rect x="727.3" y="166.9" class="st1" width="2.8" height="3.8"/>
		<rect x="732.4" y="166.9" class="st1" width="2.8" height="3.8"/>
		<rect x="737.7" y="166.9" class="st1" width="2.8" height="3.8"/>
		<rect x="742.9" y="166.9" class="st1" width="2.8" height="3.8"/>
		<rect x="747.9" y="166.9" class="st1" width="2.8" height="3.8"/>
		<rect x="752.9" y="166.9" class="st1" width="2.9" height="3.8"/>
		<rect x="758.1" y="166.9" class="st1" width="2.9" height="3.8"/>
		<rect x="763.4" y="166.9" class="st1" width="2.9" height="3.8"/>
		<rect x="768.6" y="166.9" class="st1" width="2.9" height="3.8"/>
		<rect x="773.6" y="166.9" class="st1" width="2.8" height="3.8"/>
		<rect x="778.6" y="166.9" class="st1" width="2.8" height="3.8"/>
		<path class="st1" d="M785.9,166.9c-0.2,1.3-0.3,2.5-0.5,3.8h-1.8v-3.8H785.9z"/>
		<rect x="706.8" y="173.5" class="st1" width="2.8" height="3.8"/>
		<rect x="712.2" y="173.5" class="st1" width="2.8" height="3.8"/>
		<rect x="717.4" y="173.5" class="st1" width="2.8" height="3.8"/>
		<rect x="722.3" y="173.5" class="st1" width="2.8" height="3.8"/>
		<rect x="727.3" y="173.5" class="st1" width="2.8" height="3.8"/>
		<rect x="732.4" y="173.5" class="st1" width="2.8" height="3.8"/>
		<rect x="737.7" y="173.5" class="st1" width="2.8" height="3.8"/>
		<rect x="742.9" y="173.5" class="st1" width="2.8" height="3.8"/>
		<rect x="747.9" y="173.5" class="st1" width="2.8" height="3.8"/>
		<rect x="752.9" y="173.5" class="st1" width="2.9" height="3.8"/>
		<rect x="758.1" y="173.5" class="st1" width="2.9" height="3.8"/>
		<rect x="763.4" y="173.5" class="st1" width="2.9" height="3.8"/>
		<rect x="768.6" y="173.5" class="st1" width="2.9" height="3.8"/>
		<rect x="773.6" y="173.5" class="st1" width="2.8" height="3.8"/>
		<rect x="778.6" y="173.5" class="st1" width="2.8" height="3.8"/>
		<path class="st1" d="M785,173.5c-0.2,1.3-0.4,2.5-0.7,3.8h-0.7v-3.8H785z"/>
	</g>
	<rect x="686.9" y="185.3" class="st1" width="65.9" height="33.6"/>
	<rect x="636.9" y="202.1" class="st1" width="65.9" height="16.8"/>
	<path class="st1" d="M781.1,190.6c-2.7,9.8-6.5,19.3-11.2,28.4l0,0h-11.8v-28.4H781.1z"/>
	<rect x="691.3" y="189.3" class="st2" width="12.3" height="6.2"/>
	<rect x="707.1" y="189.3" class="st2" width="12.3" height="6.2"/>
	<rect x="722.5" y="189.3" class="st2" width="12.3" height="6.2"/>
	<rect x="737.7" y="189.3" class="st2" width="12.3" height="6.2"/>
	<rect x="752.1" y="185.3" class="st6" width="6.3" height="33.9"/>
	<rect x="656.4" y="125.4" class="st3" width="0.3" height="2.6"/>
	<rect x="668.7" y="125.4" class="st3" width="0.3" height="2.6"/>
	<rect x="604.1" y="189.9" class="st2" width="45.3" height="28.8"/>
	<rect x="604.1" y="186.1" class="st1" width="45.3" height="9.3"/>
	<rect x="607.2" y="198.2" class="st1" width="2.3" height="3.1"/>
	<rect x="611.5" y="198.2" class="st1" width="2.3" height="3.1"/>
	<rect x="615.8" y="198.2" class="st1" width="2.3" height="3.1"/>
	<rect x="619.8" y="198.2" class="st1" width="2.3" height="3.1"/>
	<rect x="623.9" y="198.2" class="st1" width="2.3" height="3.1"/>
	<rect x="628" y="198.2" class="st1" width="2.3" height="3.1"/>
	<rect x="632.4" y="198.2" class="st1" width="2.3" height="3.1"/>
	<rect x="636.6" y="198.2" class="st1" width="2.3" height="3.1"/>
	<rect x="640.7" y="198.2" class="st1" width="2.3" height="3.1"/>
	<rect x="644.8" y="198.2" class="st1" width="2.3" height="3.1"/>
	<rect x="607.2" y="203.7" class="st1" width="2.3" height="3.1"/>
	<rect x="611.5" y="203.7" class="st1" width="2.3" height="3.1"/>
	<rect x="615.8" y="203.7" class="st1" width="2.3" height="3.1"/>
	<rect x="619.8" y="203.7" class="st1" width="2.3" height="3.1"/>
	<rect x="623.9" y="203.7" class="st1" width="2.3" height="3.1"/>
	<rect x="628" y="203.7" class="st1" width="2.3" height="3.1"/>
	<rect x="632.4" y="203.7" class="st1" width="2.3" height="3.1"/>
	<rect x="636.6" y="203.7" class="st1" width="2.3" height="3.1"/>
	<rect x="640.7" y="203.7" class="st1" width="2.3" height="3.1"/>
	<rect x="644.8" y="203.7" class="st1" width="2.3" height="3.1"/>
	<rect x="607.2" y="209.1" class="st1" width="2.3" height="3.1"/>
	<rect x="611.5" y="209.1" class="st1" width="2.3" height="3.1"/>
	<rect x="615.8" y="209.1" class="st1" width="2.3" height="3.1"/>
	<rect x="619.8" y="209.1" class="st1" width="2.3" height="3.1"/>
	<rect x="623.9" y="209.1" class="st1" width="2.3" height="3.1"/>
	<rect x="628" y="209.1" class="st1" width="2.3" height="3.1"/>
	<rect x="632.4" y="209.1" class="st1" width="2.3" height="3.1"/>
	<rect x="636.6" y="209.1" class="st1" width="2.3" height="3.1"/>
	<rect x="640.7" y="209.1" class="st1" width="2.3" height="3.1"/>
	<rect x="644.8" y="209.1" class="st1" width="2.3" height="3.1"/>
	<rect x="607.5" y="188.8" class="st6" width="1.9" height="3.2"/>
	<rect x="626.9" y="188.8" class="st6" width="1.9" height="3.2"/>
	<rect x="642.4" y="188.8" class="st6" width="1.9" height="3.2"/>
	<rect x="555.9" y="189.9" class="st2" width="45.3" height="28.8"/>
	<rect x="555.9" y="186.1" class="st1" width="45.3" height="9.3"/>
	<rect x="559" y="198.2" class="st1" width="2.3" height="3.1"/>
	<rect x="563.4" y="198.2" class="st1" width="2.3" height="3.1"/>
	<rect x="567.6" y="198.2" class="st1" width="2.3" height="3.1"/>
	<rect x="571.7" y="198.2" class="st1" width="2.3" height="3.1"/>
	<rect x="575.8" y="198.2" class="st1" width="2.3" height="3.1"/>
	<rect x="579.9" y="198.2" class="st1" width="2.3" height="3.1"/>
	<rect x="584.3" y="198.2" class="st1" width="2.3" height="3.1"/>
	<rect x="588.5" y="198.2" class="st1" width="2.3" height="3.1"/>
	<rect x="592.6" y="198.2" class="st1" width="2.3" height="3.1"/>
	<rect x="596.7" y="198.2" class="st1" width="2.3" height="3.1"/>
	<rect x="559" y="203.7" class="st1" width="2.3" height="3.1"/>
	<rect x="563.4" y="203.7" class="st1" width="2.3" height="3.1"/>
	<rect x="567.6" y="203.7" class="st1" width="2.3" height="3.1"/>
	<rect x="571.7" y="203.7" class="st1" width="2.3" height="3.1"/>
	<rect x="575.8" y="203.7" class="st1" width="2.3" height="3.1"/>
	<rect x="579.9" y="203.7" class="st1" width="2.3" height="3.1"/>
	<rect x="584.3" y="203.7" class="st1" width="2.3" height="3.1"/>
	<rect x="588.5" y="203.7" class="st1" width="2.3" height="3.1"/>
	<rect x="592.6" y="203.7" class="st1" width="2.3" height="3.1"/>
	<rect x="596.7" y="203.7" class="st1" width="2.3" height="3.1"/>
	<rect x="559" y="209.1" class="st1" width="2.3" height="3.1"/>
	<rect x="563.4" y="209.1" class="st1" width="2.3" height="3.1"/>
	<rect x="567.6" y="209.1" class="st1" width="2.3" height="3.1"/>
	<rect x="571.7" y="209.1" class="st1" width="2.3" height="3.1"/>
	<rect x="575.8" y="209.1" class="st1" width="2.3" height="3.1"/>
	<rect x="579.9" y="209.1" class="st1" width="2.3" height="3.1"/>
	<rect x="584.3" y="209.1" class="st1" width="2.3" height="3.1"/>
	<rect x="588.5" y="209.1" class="st1" width="2.3" height="3.1"/>
	<rect x="592.6" y="209.1" class="st1" width="2.3" height="3.1"/>
	<rect x="596.7" y="209.1" class="st1" width="2.3" height="3.1"/>
	<rect x="559.4" y="188.8" class="st6" width="1.9" height="3.2"/>
	<rect x="578.8" y="188.8" class="st6" width="1.9" height="3.2"/>
	<rect x="594.2" y="188.8" class="st6" width="1.9" height="3.2"/>
	<rect x="507.7" y="189.9" class="st2" width="45.3" height="28.8"/>
	<rect x="507.7" y="186.1" class="st1" width="45.3" height="9.3"/>
	<rect x="510.8" y="198.2" class="st1" width="2.3" height="3.1"/>
	<rect x="515.1" y="198.2" class="st1" width="2.3" height="3.1"/>
	<rect x="519.4" y="198.2" class="st1" width="2.3" height="3.1"/>
	<rect x="523.4" y="198.2" class="st1" width="2.3" height="3.1"/>
	<rect x="527.5" y="198.2" class="st1" width="2.3" height="3.1"/>
	<rect x="531.7" y="198.2" class="st1" width="2.3" height="3.1"/>
	<rect x="536" y="198.2" class="st1" width="2.3" height="3.1"/>
	<rect x="540.3" y="198.2" class="st1" width="2.3" height="3.1"/>
	<rect x="544.3" y="198.2" class="st1" width="2.3" height="3.1"/>
	<rect x="548.4" y="198.2" class="st1" width="2.3" height="3.1"/>
	<rect x="510.8" y="203.7" class="st1" width="2.3" height="3.1"/>
	<rect x="515.1" y="203.7" class="st1" width="2.3" height="3.1"/>
	<rect x="519.4" y="203.7" class="st1" width="2.3" height="3.1"/>
	<rect x="523.4" y="203.7" class="st1" width="2.3" height="3.1"/>
	<rect x="527.5" y="203.7" class="st1" width="2.3" height="3.1"/>
	<rect x="531.7" y="203.7" class="st1" width="2.3" height="3.1"/>
	<rect x="536" y="203.7" class="st1" width="2.3" height="3.1"/>
	<rect x="540.3" y="203.7" class="st1" width="2.3" height="3.1"/>
	<rect x="544.3" y="203.7" class="st1" width="2.3" height="3.1"/>
	<rect x="548.4" y="203.7" class="st1" width="2.3" height="3.1"/>
	<rect x="510.8" y="209.1" class="st1" width="2.3" height="3.1"/>
	<rect x="515.1" y="209.1" class="st1" width="2.3" height="3.1"/>
	<rect x="519.4" y="209.1" class="st1" width="2.3" height="3.1"/>
	<rect x="523.4" y="209.1" class="st1" width="2.3" height="3.1"/>
	<rect x="527.5" y="209.1" class="st1" width="2.3" height="3.1"/>
	<rect x="531.7" y="209.1" class="st1" width="2.3" height="3.1"/>
	<rect x="536" y="209.1" class="st1" width="2.3" height="3.1"/>
	<rect x="540.3" y="209.1" class="st1" width="2.3" height="3.1"/>
	<rect x="544.3" y="209.1" class="st1" width="2.3" height="3.1"/>
	<rect x="548.4" y="209.1" class="st1" width="2.3" height="3.1"/>
	<rect x="511.2" y="188.8" class="st6" width="2" height="3.2"/>
	<rect x="530.6" y="188.8" class="st6" width="1.9" height="3.2"/>
	<rect x="546" y="188.8" class="st6" width="1.9" height="3.2"/>
</g>
<ellipse transform="matrix(0.9871 -0.1602 0.1602 0.9871 3.7771 76.6209)" class="st1" cx="477" cy="14.9" rx="5.1" ry="5.1"/>
<path class="st7" d="M320.5,179.6c2.7-5.3,6.3-10.1,10.6-14.1c16-0.1,46.8,1.1,62.8,11.6c22.3,14.4,59.8,14.6,74.5,8.5
	c14.7-6.1,52-6.7,79.3,13.9s64.3-11.1,103.4,5.8c0,0,12.4,7.4,15.8,16.8c0.1,0.4,0.3,0.8,0.4,1.2H319.1L320.5,179.6z"/>
<path class="st1" d="M670.4,203.4c7.9,0.6,6.3-9.4,18.9-14.2c12.6-4.8,13.4,2.2,26,2.2s3.8-16.3,30.6-27.5
	c12.9-5.3,26.8-7.8,40.8-7.4c-0.5,10.9-2.2,21.8-5.1,32.3c-2.8,10.4-6.7,20.5-11.7,30c0,0.1-0.1,0.1-0.1,0.2c0,0.1-0.1,0.2-0.1,0.2
	l-76.1,0.3l-26.7,0.1l-15.6,0C651.8,209.7,662.8,202.8,670.4,203.4z"/>
<path class="st4" d="M686.8,212.3c2,0.1,4,0.3,6,0.6c15.2,2.5,35.1,1,50.8-16.3c13-14.5,33.6-17.2,40.1-17.7
	c-2.2,14.3-5.9,28.3-10.9,41.7c-0.4,1-0.7,1.8-1,2.6H642C644.7,216.2,670.3,211.6,686.8,212.3z"/>
<path class="st8" d="M756.9,78.4c4.1,4.2,7.8,8.7,11.2,13.5c0.2,0.3,0.5,0.7,0.7,1c2.2,3.2,4.2,6.5,6,9.9c-2.3-1.8-4.7-3.5-7.2-5.1
	c-1.6-1-3.4-2.1-5.4-3.2l-0.3-0.2c-2.9-1.6-5.9-3-9-4.2l0,0c-6.1-2.4-18.3-3.6-24-4.2c-17.8-0.2-34.9-4.4-42.3-16.8
	c-2.8-4.4-1.8-6.8-3.6-10.9c-1.2-2.8-2.8-5.4-4.7-7.8c-2.4-3.2-5.4-5.8-8.8-7.7C694.2,40.4,724.3,44.9,756.9,78.4z"/>
<path class="st1" d="M451,24.9c0-0.1,0.1-0.2,0.2-0.3c0.1-0.1,0.2-0.1,0.3-0.1h0.1c0.2,0,0.3,0.1,0.3,0.3l0.5,4.8v0.1h-1.8L451,24.9
	z"/>
<path class="st2" d="M451.3,27.5v-2.8c0-0.1,0-0.2,0.1-0.3l0,0h0.1c0.2,0,0.3,0.1,0.3,0.3l0.5,3.9h-0.1
	C451.6,28.5,451.3,28,451.3,27.5z"/>
<rect x="449.4" y="51" class="st1" width="3.5" height="153.4"/>
<rect x="451.3" y="51" class="st2" width="1.6" height="153.4"/>
<rect x="445.6" y="180" class="st1" width="11.1" height="40.6"/>
<rect x="450.1" y="180" class="st2" width="6.6" height="40.6"/>
<path class="st1" d="M451.4,28.6h0.8c3.1,0.2,5.6,1.7,5.6,3.4c0,1.8-2.4,3.2-5.6,3.4c-0.3,0-0.5,0-0.8,0c-3.5,0-6.4-1.5-6.4-3.4
	C445.1,30.1,447.9,28.5,451.4,28.6z"/>
<path class="st2" d="M452.2,28.6c3.1,0.2,5.6,1.7,5.6,3.4c0,1.8-2.4,3.2-5.6,3.4c-2.3-0.6-3.9-1.9-3.9-3.4
	C448.4,30.4,450,29.1,452.2,28.6z"/>
<polygon class="st2" points="442.3,35.3 460.6,35.3 456.7,54.1 445.6,54.1 "/>
<rect x="441.3" y="33.9" class="st1" width="20.3" height="1.8"/>
<rect x="448.8" y="33.9" class="st2" width="12.7" height="1.8"/>
<path class="st1" d="M453.5,176.9c-0.1-0.3-0.5-0.6-0.8-0.5h-3.3c-0.3,0-0.5,0.2-0.6,0.5l-1,3.1h7.1L453.5,176.9z"/>
<polygon class="st4" points="455.7,53.1 446.7,53.1 443.7,36.2 459.3,36.2 "/>
<path class="st9" d="M455.2,32.2c0.1-1.2-1.4-2.5-1.4-2.5c2.4-0.1,3.5,2.5,3.5,2.5S455.1,33.4,455.2,32.2z"/>
<polygon class="st1" points="444,31.8 458.8,31.8 460.3,33.9 442.6,33.9 "/>
<polygon class="st2" points="448.3,31.8 458.8,31.8 460.3,33.9 447,33.9 "/>
<polygon class="st7" points="454.7,52.6 453.6,52.6 454.7,36.8 458.2,36.8 "/>
<path class="st1" d="M678.2,89.6c0-0.1,0-0.2,0.1-0.2c0.1,0,0.1-0.1,0.2-0.1l0,0c0.1,0,0.2,0.1,0.2,0.2l0.4,3.2v0.1h-1.2L678.2,89.6
	z"/>
<path class="st2" d="M678.3,91.4v-1.8c0-0.1,0-0.2,0.1-0.2l0,0l0,0c0.1,0,0.2,0.1,0.2,0.2l0.3,2.6l0,0
	C678.5,92,678.3,91.7,678.3,91.4z"/>
<rect x="677" y="107.1" class="st10" width="2.3" height="102.7"/>
<rect x="678.3" y="107.1" class="st2" width="1.1" height="102.7"/>
<rect x="674.5" y="193.4" class="st10" width="7.4" height="27.2"/>
<rect x="677.5" y="193.4" class="st2" width="4.4" height="27.2"/>
<path class="st10" d="M678.4,92.1h0.5c2.1,0.1,3.7,1.1,3.7,2.3s-1.6,2.1-3.7,2.3h-0.5c-2.3,0-4.3-1-4.3-2.3S676.1,92.1,678.4,92.1z"
	/>
<path class="st2" d="M678.9,92.1c2.1,0.1,3.7,1.1,3.7,2.3s-1.6,2.1-3.7,2.3c-1.5-0.4-2.6-1.3-2.6-2.3
	C676.4,93.3,677.4,92.5,678.9,92.1z"/>
<polygon class="st2" points="672.3,96.6 684.5,96.6 681.9,109.2 674.5,109.2 "/>
<rect x="671.6" y="95.6" class="st10" width="13.6" height="1.2"/>
<rect x="676.7" y="95.6" class="st2" width="8.5" height="1.2"/>
<path class="st10" d="M679.8,191.4c-0.1-0.2-0.3-0.4-0.5-0.4H677c-0.2,0-0.4,0.1-0.4,0.3l-0.7,2.1h4.7L679.8,191.4z"/>
<polygon class="st4" points="681.2,108.5 675.2,108.5 673.2,97.2 683.6,97.2 "/>
<path class="st10" d="M680.9,94.5c0.1-0.8-0.9-1.7-0.9-1.7c1.6,0,2.4,1.7,2.4,1.7S680.8,95.3,680.9,94.5z"/>
<polygon class="st10" points="673.4,94.3 683.3,94.3 684.3,95.6 672.5,95.6 "/>
<polygon class="st2" points="676.3,94.3 683.3,94.3 684.3,95.6 675.4,95.6 "/>
<polygon class="st7" points="680.6,108.1 679.9,108.1 680.6,97.6 683,97.6 "/>
<path class="st1" d="M320.4,175.1c1.6-3.5,3.5-6.7,5.7-9.7c39.8,1.8,45,38.3,61.8,38.2c0.7,0,1.3,0,1.9,0s1.2,0.1,1.8,0.2
	c0.5,0.1,1,0.2,1.5,0.3c1.4,0.3,2.7,0.7,4,1.3c9.4,4.2,13.4,14.3,14.4,17.4l-95.3,0.3C312.8,202.1,315,186.8,320.4,175.1z"/>
<path class="st1" d="M405.3,196.7c-6.7-1.4-16.9,13.3-16.9,13.3S412,198.2,405.3,196.7z"/>
<path class="st1" d="M392.5,195.7c-3.5-1-2.5,11.6-2.5,11.6S396,196.7,392.5,195.7z"/>
<path class="st7" d="M326.3,191.7c-1.2,5,4.1,12.8,4.1,12.8C330.9,195.9,327.5,186.7,326.3,191.7z"/>
<path class="st1" d="M328.3,196.7c-6.7-1.4-16.9,13.3-16.9,13.3S335,198.2,328.3,196.7z"/>
<path class="st1" d="M315.5,195.7c-3.5-1-2.5,11.6-2.5,11.6S319,196.7,315.5,195.7z"/>
<g>
	<path class="st1" d="M332.5,175.8c-2-3.4-4.4-6.6-7.1-9.6c-49.7,1.8-56.2,37.9-77.2,37.8c-0.8,0-1.6,0-2.4,0
		c-0.8,0-1.5,0.1-2.3,0.2c-0.6,0.1-1.3,0.2-1.9,0.3c-1.7,0.3-3.4,0.7-5,1.3c-11.8,4.1-16.7,14.2-17.9,17.2l119.1,0.3
		C342,202.5,339.2,187.4,332.5,175.8z"/>
	<path class="st1" d="M226.4,196c8.3-1.6,21.1,15.2,21.1,15.2S218.1,197.6,226.4,196z"/>
	<path class="st1" d="M242.5,194.8c4.3-1.1,3.1,13.2,3.1,13.2S238.2,196,242.5,194.8z"/>
	<path class="st7" d="M310.1,180c12.7,5,6,34.1,6,34.1S297.5,175,310.1,180z"/>
	<path class="st7" d="M295.5,190.8c9.6,3.7,16.1,20.2,16.1,20.2C296.8,202.4,285.9,187.2,295.5,190.8z"/>
	<path class="st7" d="M325.1,190.2c1.5,5.7-5.2,14.5-5.2,14.5C319.3,195,323.6,184.5,325.1,190.2z"/>
	<path class="st7" d="M339.3,197.1C339.3,197.1,339.3,197,339.3,197.1c-7.3-0.5-16.9-1.4-41.6,17.6c-2.6,2-5.9,3.1-9.3,3.1
		c-4.2,0-8.4-1.1-11.9-3.2c-16.3-9.5-28.3,7.8-28.3,7.8h89.6c0.1-0.1,0.1-0.2,0.1-0.3C339.7,213.9,340.2,205.5,339.3,197.1z"/>
</g>
<path class="st1" d="M467.1,222.4c-4.9-2.7-10.6-3.3-16-1.7c-8.5,2.8-10.3-3.9-22-3.6s-14.3,6.3-14.3,6.3L467.1,222.4z"/>
<path class="st1" d="M589.8,219.3c0.5,0,1.1,0,1.6-0.1c-0.6-0.5-1.9-1.4-3-2.1c-1.4-0.9-2.2-2.4-0.2-2.7c1.7-0.2,3.1,3.6,3.5,4.7
	l0.7-0.1c-0.4-1.3-0.9-2.5-1.5-3.7c-0.8-1.6-3.5-4.3-0.8-4.6c2.5-0.3,3.1,6.6,3.2,8.1c0.4-0.1,0.8-0.2,1.3-0.2
	c0.8,0.1,1.5,0.9,1.1,1.3h-8.3C588.1,219.4,589,219.2,589.8,219.3z"/>
<path class="st1" d="M499.5,31.1c0,0,2.4-3,9.8-5.8c11-4.3,25.9-2,25.9-2c14-9.2,27.2,1.4,27.2,1.4c9-0.7,12.8,5.7,12.8,5.7
	L499.5,31.1z"/>
<path class="st1" d="M474.9,48.3c0,0,1.4-1.8,5.7-3.5c6.4-2.6,15.1-1.2,15.1-1.2c8.1-5.6,15.8,0.9,15.8,0.9c2.9-0.4,5.8,1,7.5,3.5
	L474.9,48.3z"/>
<path class="st1" d="M390,76.8c0,0,1.5-2.5,6.1-4.8c6.9-3.5,16.3-1.6,16.3-1.6c8.8-7.6,17,1.2,17,1.2c5.7-0.6,8.1,4.7,8.1,4.7
	L390,76.8z"/>
<path class="st4" d="M748.9,195.4c0,0-18-7.9-12.6-9.1c5.4-1.2,14.3,8.6,14.3,8.6L748.9,195.4z"/>
<path class="st4" d="M745.6,197.2c0,0-15.3-0.5-12.6-2.8s13.1,1.8,13.1,1.8L745.6,197.2z"/>
<path class="st4" d="M753.1,191.6c0,0-9-9.9-6.2-10.3s8.3,9.6,8.4,10.1L753.1,191.6z"/>
<path class="st11" d="M525.4,102.6C525.4,102.7,525.4,102.7,525.4,102.6C525.4,102.6,525.4,102.6,525.4,102.6z"/>
<path class="st7" d="M338.3,182.8c-10.1,4.4-4.8,29.9-4.8,29.9S348.4,178.4,338.3,182.8z"/>
<path class="st7" d="M350,192.2c-7.7,3.2-12.9,17.7-12.9,17.7C348.9,202.3,357.7,189,350,192.2z"/>
<path class="st7" d="M315,197.8C315,197.7,315,197.7,315,197.8c5.9-0.5,13.5-1.4,33.3,17.8c2.1,2,4.7,3.1,7.4,3.2
	c3.4,0,6.7-1.2,9.5-3.3c13.1-9.6,22.7,7.9,22.7,7.9h-71.7c0-0.1,0-0.2,0-0.3C314.7,214.7,314.3,206.2,315,197.8z"/>
</svg>
