<?xml version="1.0" encoding="utf-8"?>
<!-- Generator: Adobe Illustrator 23.1.0, SVG Export Plug-In . SVG Version: 6.00 Build 0)  -->
<svg version="1.1" xmlns="http://www.w3.org/2000/svg" xmlns:xlink="http://www.w3.org/1999/xlink" x="0px" y="0px" width="425px"
	 height="734px" viewBox="0 0 425 734" style="enable-background:new 0 0 425 734;" xml:space="preserve">
<style type="text/css">
	.st0{fill:#FCECEE;}
	.st1{fill:#C1EEF7;}
	.st2{fill:#FCD1EE;}
	.st3{fill:#A4D9F1;}
	.st4{fill:#FFB27D;}
	.st5{fill:#2E3192;}
	.st6{fill:#1B1464;}
	.st7{fill:#F99746;}
	.st8{fill:#ED7D2B;}
	.st9{fill:#2C3A64;}
	.st10{fill:#ED985F;}
	.st11{fill:#182C4C;}
	.st12{fill:#9DB0F4;}
	.st13{fill:#ABDDDA;}
	.st14{fill:#233862;}
	.st15{fill:#0F2949;}
	.st16{fill:#ED1C24;}
	.st17{fill:#C1272D;}
	.st18{fill:#163560;}
	.st19{fill:#2B478B;}
	.st20{fill:#ED1C24;stroke:#C1272D;stroke-miterlimit:10;}
	.st21{fill:#CCCCCC;}
</style>
<g id="Layer_3">
	<path class="st0" d="M380.4,190.4c14.9-2.1,29.6-5.8,44.1-10.2v-59.1c-17,9.1-33.9,18-49.5,27.3c-11.2,6.6-49.3,22.8-37,36.9
		C346.2,194.3,369.2,192,380.4,190.4z"/>
	<path class="st1" d="M424.5,582.5v-34c-5.2,4-10.4,7.9-15.7,11.9c-7.8,5.9-41.7,24.9-39.6,34.9
		C371.3,604.7,397.1,595.2,424.5,582.5z"/>
	<path class="st1" d="M-0.2,95.2c40-26.1,80.7-51.5,121.7-77c6.1-3.8,17.1-10.6,27.4-18.7H50.6C22.6-0.4-0.2,17-0.2,38.5V95.2z"/>
	<path class="st0" d="M194.2,95.3c5.7-4.4,28.9-18.5,28-25.3C219.2,48.4,152,81,144.5,84.2c-51.5,22.2-94.7,56-142.3,82.6
		c-0.6,0.4-1.4,0.8-2.4,1.3v42.1c39.8-22.9,79.4-46.1,119.2-69.1C144.5,126.4,171.7,112.7,194.2,95.3z"/>
	<path class="st2" d="M424.5,683.8V639c-53.8,13.5-107.7,26.7-160.9,41.7c-57.4,16.2-111.9,37.5-169.6,52.9H329
		C356.6,712.7,389.4,695.6,424.5,683.8z"/>
	<path class="st1" d="M366.1-0.4H288c-10.1,9.9-14,18.4-5.6,23.1c9.9,5.5,36.8-2,46.5-5.3C342.1,12.9,354.2,6.3,366.1-0.4z"/>
	<path class="st1" d="M60.9,599.6C49,598,22.7,612.8,12,617.2c-4.1,1.7-8.2,3.4-12.2,5.2v58.2c24.6-16.3,49.3-33.1,65.5-53.7
		C71.7,618.8,79.1,602,60.9,599.6z"/>
	<path class="st3" d="M211.8,258.8c-29.8-1.9-60.3,6.7-80.1,26.3c-20.2,19.9-10,46.2-26.5,68.3c-20.1,26.8-39.1,47.5-38.6,81.1
		c0.5,35,16.8,64.1,48.2,87.9c31,23.6,83.6,26.4,123.1,20.8c48.3-6.9,96.7-32.5,118.7-69.4c13.3-22.3,17.1-48.9,3-71.2
		c-14.3-22.6-45.2-35.1-54.3-60.1c-9.2-25.3-11.2-47.9-37.6-65.8C251.7,266.1,231.9,260,211.8,258.8z"/>
</g>
<g id="Layer_2">
	<g>
		<path class="st4" d="M250.1,326.1c-1.5,2.4-8.8-2.3-9.7-2.9c-0.1-0.1-0.1-0.1-0.1-0.1l0.3-5.1c0,0,7.1-2.3,8.6-1.5
			C250.7,317.4,251.8,323.5,250.1,326.1z"/>
		<path class="st4" d="M240.6,318l0.7,5c0,0-0.3,0.1-0.9,0.2c-1.8,0.4-6.1,1.4-11,2.2c-4.7,0.9-10,1.6-14.2,1.8
			c-2.5,0.1-4.6,0-6-0.4c-6.1-1.7-17.3-8.9-25.6-17c-0.2-0.2-0.4-0.4-0.6-0.6c-2.8-2.8-5.2-5.6-7-8.4c-1-1.5-1.7-3-2.2-4.4
			c-0.8-2.4-1.2-4.7-1.2-6.7c0-2.6,0.5-4.9,1.2-6.7c0.1-0.3,0.2-0.6,0.4-0.8c1.3-2.8,2.8-4.3,2.8-4.3c0.7-0.5,10,6.6,10.7,7.4
			c7.9,9.2,17.6,23.7,23.3,27.2c1.3,0.8,4.7,1.7,8.8,2.4l0,0c0.1,0,0.2,0,0.2,0c0,0,0,0,0,0c3.4,0.6,7.2,1.2,10.6,1.7
			C236.2,317.6,240.6,318,240.6,318z"/>
		<path class="st5" d="M220.1,315.2c-0.1,0.6-0.4,3.4-1.4,6.4c-0.8,2.4-2,5-3.8,6.7c-1.8-0.3-5.1-0.6-6.6-1
			c-5.3-1.5-13.9-7.4-21.5-14.2c-1.2-1-2.3-2.1-3.4-3.2c-0.2-0.2-0.4-0.4-0.6-0.6c-2.8-2.8-5.2-5.6-7-8.4l3.7-22.9l0-0.1
			c0,0,0.2,0.1,0.3,0.2c0,0,0,0,0,0c0.4,0.2,1,0.6,1.7,1.2c0,0,0,0,0,0c0.8,0.6,1.7,1.4,2.6,2.4c0,0,0.1,0.1,0.1,0.1
			c0.3,0.3,0.6,0.6,1,1c0.1,0.1,0.2,0.2,0.2,0.2c0.7,0.8,1.4,1.6,2.1,2.5c7.9,9.2,17.6,23.7,23.3,27.2c1.3,0.8,4.7,1.7,8.8,2.4l0,0
			C220,315.2,220.1,315.2,220.1,315.2z"/>
		<path class="st6" d="M218.8,321.6c-0.8,2.4-2,5-3.8,6.7c-1.8-0.3-5.1-0.6-6.6-1c-5.3-1.5-13.9-7.4-21.5-14.2
			c-0.6-2.7,17,6.8,19.4,8.8C208.2,323.2,215.2,322.2,218.8,321.6z"/>
		<path class="st7" d="M195.5,514.5l-5.4,2c0,0-23.5-32.6-26.4-61.4c-0.5-5.1-0.3-10.1,0.8-14.7c0,0-0.2-1.3-0.6-3.6
			c-0.2-1.1-0.4-2.4-0.7-3.9c-0.8-4.4-1.8-10.4-3-17.2c-2.8-15.7-6.4-35.8-9.1-50.6l1.5-0.5l15.8-5.1l3.3-10.4l11.8-3.1
			c0,0,2.6,5.1,5,29.4c0.4,3.2,0.8,6.7,1.1,10.5c0.9,11.6,1,26-1.1,42.5c-0.5,4.2-1.2,8.6-2.1,13.1c-0.6,3.3-0.7,7.8-0.5,12.9
			C186.9,478.1,195.5,514.5,195.5,514.5z"/>
		<path class="st8" d="M189.3,386.1l-25.5,50.8c-0.2-1.1-0.4-2.4-0.7-3.9c-0.8-4.4-1.8-10.4-3-17.2c-2.8-15.7-6.4-35.8-9.1-50.6
			l1.5-0.5l15.8-5.1l3.3-10.4l11.8-3.1c0,0,2.6,5.1,5,29.4C188.7,378.8,189,382.3,189.3,386.1z"/>
		<path class="st7" d="M178.1,352.7l-0.6-5.1c-9.9,2.6-36.4-7.4-36.4-7.4s-9.6,8.4-8.3,28.7c0.6,9.9,1.7,51.8,2.9,64.2
			c0.4,4.5,0.8,7.7,0.9,9c0,0,0,0,0,0c0,0.4-0.1,0.8-0.3,1.1c-1.7,2.9-3.2,6-4.3,9.1c-11.5,30.7,1.8,68.5,1.8,68.5l3.4-1.4
			c0,0,7.6-42.1,13.7-60.6c1-3.2,2-5.6,3-7.1c2.7-4.3,5.2-11.4,7.4-19.7c4.3-15.8,7.7-36.5,10-52.4
			C171.6,379.6,178.1,352.7,178.1,352.7z"/>
		<path class="st4" d="M167.9,295.2c-16.1,5.6-19.5-19.9-18.5-20c1.7-1.6,3.8-7.7,3.5-16.8l0.8,0.1l13.4,2.2c0,0-0.2,4.2,0,8.1
			c0.1,3.1,0.4,6,1,6.7c1,0.1,1.7,0.2,1.7,0.2s0,0,0,0C170,275.9,172.2,293.7,167.9,295.2z"/>
		<path class="st9" d="M149.1,225.9c-0.2-0.7-3-8.2-14.7-5.3c0,0,5.9-1,7.6,1.3c0,0-4.8-2-7.7-0.1c-2.9,1.9-3.2,8-2.7,9.8
			c0.5,1.8,4,7.2,6.1,7.2c0.8,0,1.7-0.3,2.4-0.7c-0.3,1-0.6,2.1-0.8,3.2c-1.9,10.9,5.5,18.8,9.2,16.7c2.3-1.4,4.3,2.7,4.3,2.7
			l18.8-26.9C171.8,233.9,157.4,217.8,149.1,225.9z"/>
		<path class="st10" d="M167.1,260.6c0,0-0.2,4.2,0,8.1c-7.5,0.1-11.6-6.6-13.4-10.3L167.1,260.6z"/>
		<path class="st4" d="M169.7,264.3c0,0-17.6,0.9-18-10.1c-0.4-11-2.9-18.3,8.3-19.3c11.2-1,13.6,3.1,14.6,6.7
			C175.6,245.2,174.3,263.7,169.7,264.3z"/>
		<path class="st9" d="M173.9,235.5c-2.8-3.2-4.9-2.4-6-1.4c-9.8-5-15.8,3.1-15.8,3.1c-0.9,7.9-6.4,12.6-6.4,12.6s3.3,1.9,10.6-0.3
			c2.2-0.7,4.2-2.3,5.9-4.3c-2.8,5.1-6.8,8.9-6.8,8.9c8.7-4.4,11.8-16.8,12.1-18.1c1.1,0.9,3.3,3,4,5c1,2.8,1.6,8.5,3.2,8.3
			C174.8,249.2,178.1,240.3,173.9,235.5z"/>
		<path class="st11" d="M153.9,523.6h-27.3c0,0-0.7-4.2,0.8-7.3c1.4-3,3.5-4.4,3-8.1c1.7,1.8,4.6,3.8,8.5,3.3c0.5,0.8,3.1,5,4.7,6.1
			C145.4,518.9,153.3,518.5,153.9,523.6z"/>
		<path class="st11" d="M212.5,523.6h-27.3c0,0-1-4.4,0.8-7.3c1.6-2.6,1-4.1-0.2-6.3c1.2,0.5,2.8,1,4.6,0.9c1.4-0.1,2.8-0.7,4.1-1.4
			c1.2,1.3,6.2,7,7.8,8.2C204,518.9,211.9,518.5,212.5,523.6z"/>
		<path class="st6" d="M128.4,385c0,0,23.9,11.5,55.9-3.5c0.7-2.3,1.4-4.3,0.8-6.2c0.1,0.1,1.5,2.6,2.5,5.4c2.7-0.7,4.1-1.2,5.5-2.8
			l-0.6-5.6l-3.7-36.3l-2.4-23.5l-6.8-34.6l-11-2.3c0,0-0.7,9.9-4.3,13.7c0,0-10.1-4.3-16.1-14.2c0,0-15.5,4-16.9,12
			c-0.7,4.2-1.5,9.7-2.2,19.8c-0.3,4.5-0.5,9.3-0.6,14.3C128.1,345.1,128,366.5,128.4,385z"/>
		<path class="st12" d="M151.2,272.1c0,0-2.7,1-2.8,2.9c0,0,7.9,13.6,16.1,14.2L151.2,272.1z"/>
		<path class="st12" d="M164.4,289.2c0,0,3.6-13.6,3.1-15.3c0,0,3.2,0.3,3.5,2.1C171.1,276,167.8,287.4,164.4,289.2z"/>
		<path class="st5" d="M143.8,289.5c0.4,0.6,37.1,33.6,39.9,41.4c2.8,7.8-9.6,6.5-10.1,5.5C173.2,335.4,143.8,289.5,143.8,289.5z"/>
		<path class="st5" d="M136.7,297.6c0,0,21,66.6,55.8,74.6l-3.7-36.3l-18.4-4.6L136.7,297.6z"/>
		<path class="st13" d="M220.1,315.1C220.1,315.2,220.1,315.2,220.1,315.1C220.1,315.2,220.1,315.1,220.1,315.1
			C220.1,315.1,220.1,315.1,220.1,315.1z"/>
		<g>
			<g>
				<path class="st14" d="M313.6,524.1l-0.5-156.8c0,0-1.2-11.3-11-11.4c-10.5-0.1-11.2,11.2-11.2,11.2s0.1,1,1.2,1
					c1.1,0,1.3-1,1.3-1s0.5-8.7,8.6-8.7c7.6,0,8.5,8.8,8.5,8.8L309.6,524L313.6,524.1z"/>
				<path class="st15" d="M308.3,524l6.5,0l-0.5-6.8c0,0,0.1-0.9-1.3-1c-1.2-0.1-3.6-0.2-3.9,0.5C308.9,517.4,308.3,524,308.3,524z"
					/>
			</g>
			<path class="st4" d="M303.7,347.6l0.5,2.2c0,0,11.1-0.1,13.7,11.8c0,0,0.7,4.9-2.8,3.9c-3.6-1-3-3.6-8.1-4.9
				c-5.1-1.4-8.3-2.4-9.1-6.1l-0.8-4.1L303.7,347.6z"/>
			<path class="st16" d="M263.9,250.6c0,0,3,11.5,5.6,22.1c1,4.2,2,8.3,2.7,11.4c0.7,3.2,1.1,5.3,1,5.6c-2.2,3.6,2,25.3,5.2,33.2
				c0.3,0.7,0.7,1.5,1.1,2.4c4.5,8.7,16.4,25.7,16.4,25.7s3.3,0.3,5.5-0.5c1.8-0.7,3-2.9,3-2.9c-0.6-2.2-5.5-21.8-11-33
				c-2.4-4.8-6.1-49.6-10.7-55.6C278.9,254,263.9,250.6,263.9,250.6z"/>
			<path class="st17" d="M273.1,289.7c-2.2,3.6,2,25.3,5.2,33.2c0.3,0.7,0.7,1.5,1.1,2.4c4.1-18.8-3.1-45.4-3.1-45.4
				c-1.8,0.7-3.1,2.2-4.2,4.2C272.9,287.3,273.3,289.5,273.1,289.7z"/>
			<path class="st15" d="M243.7,507.1c0,0-1,17,2.2,17.2c0.4,0,16.3-0.1,16.3-0.1l20.5-0.1c0,0-0.4-5-6.3-6
				c-5.9-1-15.9-5.1-19.5-12.9C253,497,243.7,507.1,243.7,507.1z"/>
			<path class="st18" d="M212.9,507.3c0,0-1,17,2.2,17.2c0.4,0,16.3-0.1,16.3-0.1l20.5-0.1c0,0-0.4-5-6.3-6
				c-5.9-1-15.9-5.1-19.5-12.9C222.2,497.2,212.9,507.3,212.9,507.3z"/>
			<path class="st19" d="M242.5,466.1c-0.5,7.2-1.4,16.4-1,24.8c0.6,11.6,1,21.5,1,21.5c7.7,2.6,21.8-0.7,21.8-0.7s4.8-29.5,8.8-53
				c1.8-10.5,3.3-19.7,3.8-24c1.8-13.9-2.5-87.8-2.5-87.8s-20.9-13.2-29.4-6.3c-8.5,6.9-13.8,13.7,0.5,88.8
				C246.5,435.1,243.5,450,242.5,466.1z"/>
			<path class="st14" d="M242.5,466.1c-0.5,7.2-1.3,18.7-0.9,27c7.2-7.7,21.3-23.9,31.5-34.5c1.8-10.5,3.3-19.7,3.8-24
				c1.8-13.9-2.5-87.8-2.5-87.8s-20.9-13.2-29.4-6.3c-8.5,6.9-13.8,13.7,0.5,88.8C246.5,435.1,243.5,450,242.5,466.1z"/>
			<path class="st19" d="M255.6,348.5c0,0-1.4,74-4.3,87.8c-2.8,13.7-17.7,76.6-17.7,76.6s-14.3,1.4-21.7-1.8c0,0,0.3-29.1,2.7-46.2
				c2.3-16,6.4-30.6,5.8-36.4c-8.5-76-2.7-82.3,6.3-88.6C235.8,333.7,255.6,348.5,255.6,348.5z"/>
			<path class="st4" d="M227,355.1c0,0,5,9.9-4.5,17.5c0,0-4.1,2.8-4.8-0.8c-0.7-3.7,0.1-2.4-0.9-7.5c-1-5.1,0.2-10.4,3.2-12.8
				L227,355.1z"/>
			<path class="st4" d="M268.4,233.8c0,0-5.7,8.7-4.5,16.8l-8.3,20.4l-15.4-23.2c0,0,8-8.8,10.9-20.8L268.4,233.8z"/>
			<path class="st4" d="M270.9,241.2c0,0-20.8,1-21.2-11.4c-0.5-12.5-6.1-20.7,9.4-21.9c12.8-1,17.1,4.3,18.2,8.5
				C278.5,220.4,278.6,240.5,270.9,241.2z"/>
			<path class="st20" d="M220.7,352.3c4.5,0.4,10.6,0.9,18.1,1.3c1.5,0.1,3,0.2,4.6,0.2c22.5,1.1,31.5-2.6,31.5-2.6s0.6-0.5,0.4-3.1
				c-1.1-13.6-4-17.6-3.6-20.2c0.7-5.8,14.6-53.4,14.6-53.4s0.1-5.7-3.8-11.7c-1.8-2.7-5.4-5.3-12.8-10.3c-2-1.3-4.1-2.8-5.7-2
				c-1.4,0.7-1.2,2.6-3,3.9c-1.5,1.1-3.4,1-4.8,0.9c-7.6-0.8-13.3-5.5-15.7-7.8c-0.4,0-1.5,0.3-1.5,0.3c-0.6,1.6,0.3,3.2-0.1,4.9
				c-1.3,5.9-2.1,12.1-5.7,16.8c-3.5,4.6-6.6,9.1-9.2,13.6c-2.1,3.7-4,7.3-5.6,10.8C203.9,326.6,215.4,351.8,220.7,352.3z"/>
			<path class="st17" d="M220.7,352.3c4.5,0.4,10.6,0.9,18.1,1.3c2-36.7-13.2-71.8-13.2-71.8c-0.6,0.4-1.1,0.8-1.6,1.3
				c-2.6,2.5-4.4,6.3-5.6,10.8C214.1,310.6,218,337.6,220.7,352.3z"/>
			<path class="st21" d="M277.5,229.3c0,0,4.1,16-2.7,18.3c-6.9,2.3-25.1,0.6-25.2-19.1c0,0,9.6,5.6,14.2,5.5
				c4.6-0.2,7.5-2.8,11.7-0.8C275.5,233.2,277.1,233.1,277.5,229.3z"/>
			<path class="st21" d="M250.5,211.8c0.3-1.3,1.9-2,1.9-2c11.7-5.2,20.3,0.4,20.3,0.4c-7.2-9.6-24.5-7.5-28.1,1.2
				c-5.9,14.2,5,17.1,5,17.1s10.8-4.6,4.5-10.3c-2.1-1.9-3.1-3.6-3.5-5l0,0l0,0C250.6,212.7,250.5,212.2,250.5,211.8z"/>
			<path class="st4" d="M226.8,354.3c0,0,3.3,5.5,3.7,6.9c0.4,1.3-1.2,1.4-2.2,0C227.4,359.8,226.8,354.3,226.8,354.3z"/>
			<path class="st16" d="M240.2,247.8c0,0-14.5,0.4-22.1,10.4c-5.8,7.7-11.8,48.8-11.8,55c0,6.2,6.9,40.3,10.6,43.9
				c0,0,2.4,0.6,5.6,0c3.4-0.7,5.4-2.7,5.4-2.7s-2.1-38-2.1-41.5c0-5.2,15.9-36.8,15.9-36.8S249.9,261,240.2,247.8z"/>
		</g>
		<g>
			<path class="st4" d="M208.8,335.5l0.1,5.4c0,0-1.8,0.2-4.7,0.5c-0.9,0.1-1.4,0.1-1.4,0.1c-2.3,0.2-5.1,0.4-8.2,0.6l0,0
				c-5.3,0.2-11.2,0.4-16.3,0.1c-0.5,0-0.9-0.1-1.4-0.1c-3-0.2-5.7-0.6-7.7-1.2c-0.2-0.1-0.4-0.1-0.7-0.2
				c-5.6-2-13.9-10.3-21.2-19.7c-1-1.3-2-2.6-2.9-3.9c-3.5-4.7-6.6-9.5-8.8-13.7c-1.4-2.5-2.5-4.8-3.1-6.8c-0.2-0.7-0.5-1.4-0.6-2
				c-3.2-11.5,4.5-15,6-14c1.8,1.2,4,3.5,6.4,6.2c3.7,4.4,8,10.3,12,16.3c2.3,3.2,4.5,6.5,6.6,9.5c1.2,1.8,2.5,3.5,3.6,5.1
				c2.2,3,4,5.3,5.5,6.7c0.9,0.9,3.2,1.9,6.1,3c0.8,0.3,1.6,0.6,2.4,0.8c4.8,1.6,10.7,3.1,15.9,4.4c2.6,0.6,5,1.2,7,1.6
				C206.7,335.1,208.8,335.5,208.8,335.5z"/>
			<path class="st6" d="M180.5,328.3c0,0,3,9.4-4.6,16.6c-11.4-0.8-21.3-14.6-28.6-23.9c-1-1.3-2-2.6-2.9-3.9
				c-3.5-4.7-6.6-9.5-8.8-13.7c-1.4-2.5-2.5-4.8-3.1-6.8c-0.2-0.7-0.5-1.4-0.6-2c-3.2-11.5,4.5-15,6-14c1.8,1.2,4,3.5,6.4,6.2
				c3.7,4.4,8,10.3,12,16.3c2.3,3.2,4.5,6.5,6.6,9.5c1.2,1.8,2.5,3.5,3.6,5.1c2.2,3,4,5.3,5.5,6.7c0.9,0.9,3.2,1.9,6.1,3
				C178.9,327.7,179.7,328,180.5,328.3z"/>
			<path class="st4" d="M224,330.6c-2.2,0.6-5.6,1.4-7.8,1.3c0,0,6.3-1.9,4.4-3.5c-0.3-0.3-3.4,0.9-6.9,1.9
				c-1.4,0.4-4.4,3.4-4.2,3.4c-2.6,0.4-5.1,0.6-5.9,0.6c-0.2,0-0.3,0-0.3,0l-0.4,7.2c0,0,0.5,0,1.4-0.1c2.2-0.1,6.8-0.2,11.4,0.2
				c6.3,0.6,9.7-3.4,11-5.9c0.8-1.6,1.3-3.5,0.9-4.7C227,329.7,225.3,330.3,224,330.6z"/>
		</g>
	</g>
</g>
</svg>
